# xmcd
#
# Track frame offsets:
#	182
#	11937
#	39542
#	55012
#	76140
#	89745
#	102352
#	116952
#	149092
#	163232
#	178815
#	190820
#	203742
#	220030
#	241620
#	256032
#
# Disc length: 3620 seconds
#
# Revision: 1
# Processed by: cddbd v1.5.2PL0 Copyright (c) Steve Scherf et al.
# Submitted via: audiograbber 1.83.01
#
DISCID=e30e2210
DTITLE=Various Artist - 16 Legendäre Hits
DYEAR=1900
DGENRE=UnClassifiable
TTITLE0=Uriah Heep - Easy Livin
TTITLE1=Bob Dylan - Like A Rolling Stone
TTITLE2=Jimi Hendrix - Hey Joe
TTITLE3=Eric Burdon - The House of the Rising Sun
TTITLE4=Jefferson Airplane - Somebody To Love
TTITLE5=Bob Dylan - Blowin´in The Wind
TTITLE6=Canned Heat - On The Road Again
TTITLE7=The Doors - Light My Fire
TTITLE8=Sonny and Cher - I Got You Babe
TTITLE9=Steppenwolf - Born TO Be Wild
TTITLE10=Lovin´ Spoonful - Summer In The City
TTITLE11=Simon and Garfunkel - I Am A Rock
TTITLE12=Barry McGuire - Eve Of Distruction
TTITLE13=Eric Burdon and The Animals - Tabacco Road
TTITLE14=The Walker Brothers - The Sun Ain´t Gonna Shine Anymore
TTITLE15=Ike and Tina Turner - River Deep, Mountain High
EXTD=
EXTT0=
EXTT1=
EXTT2=
EXTT3=
EXTT4=
EXTT5=
EXTT6=
EXTT7=
EXTT8=
EXTT9=
EXTT10=
EXTT11=
EXTT12=
EXTT13=
EXTT14=
EXTT15=
PLAYORDER=
